Coordinates
version=1
nRows=7
nColumns=63
inDegrees=yes

Units are S.I. units (second, meters, Newtons, ...)
If the header above contains a line with 'inDegrees', this indicates whether rotational values are in degrees (yes) or radians (no).

endheader
time	pelvis_tilt	pelvis_list	pelvis_rotation	pelvis_tx	pelvis_ty	pelvis_tz	hip_flexion_r	hip_adduction_r	hip_rotation_r	knee_angle_r	knee_angle_r_beta	ankle_angle_r	subtalar_angle_r	mtp_angle_r	hip_flexion_l	hip_adduction_l	hip_rotation_l	knee_angle_l	knee_angle_l_beta	ankle_angle_l	subtalar_angle_l	mtp_angle_l	L5_S1_Flex_Ext	L5_S1_Lat_Bending	L5_S1_axial_rotation	L4_L5_Flex_Ext	L4_L5_Lat_Bending	L4_L5_axial_rotation	L3_L4_Flex_Ext	L3_L4_Lat_Bending	L3_L4_axial_rotation	L2_L3_Flex_Ext	L2_L3_Lat_Bending	L2_L3_axial_rotation	L1_L2_Flex_Ext	L1_L2_Lat_Bending	L1_L2_axial_rotation	L1_T12_Flex_Ext	L1_T12_Lat_Bending	L1_T12_axial_rotation	Abs_r3	Abs_r2	Abs_r1	Abs_t1	Abs_t2	neck_flexion	neck_bending	neck_rotation	arm_flex_r	arm_add_r	arm_rot_r	elbow_flex_r	pro_sup_r	wrist_flex_r	wrist_dev_r	arm_flex_l	arm_add_l	arm_rot_l	elbow_flex_l	pro_sup_l	wrist_flex_l	wrist_dev_l
      2.66666667	     -3.79942044	     -0.22733136	     86.94470972	      0.24515683	      0.79471342	      0.72962226	     15.25443779	     -1.93086005	      8.88990223	     22.79598095	      0.39786492	     24.94526741	     -7.46970923	      0.00000000	      8.94118251	      1.36637483	      3.21469056	     11.48858476	      0.20051363	     21.86676428	    -11.54058205	      0.00000000	      0.03973862	     -0.68889846	      1.34382682	      0.07379860	     -0.91623495	      1.42781600	      0.06528658	     -1.67498771	      1.42781600	      0.04541727	     -1.67498771	      1.17584847	      0.03690128	     -1.40480173	      1.09185929	      0.02270665	     -1.06710371	      1.00787012	      0.28384901	     -7.79295712	      7.47396165	      0.00000000	      0.00000000	     27.26356224	      1.26651609	     -4.94981430	     -2.26869346	     -9.67625407	      8.31614015	    104.52287119	     83.43610275	     -4.80801038	      1.17475358	      7.83147514	    -21.55954680	     29.31600460	     97.73250207	     62.47142242	      4.18655921	     18.02738129
      2.69047619	     -3.62750242	     -0.10864070	     87.33425244	      0.24482463	      0.79444755	      0.72829059	     14.89540687	     -1.87770048	      8.45990372	     22.58188831	      0.39412830	     25.06104389	     -7.43019237	      0.00000000	      8.82728521	      1.27206182	      3.93877065	     11.64767406	      0.20329026	     22.27454854	    -11.93003012	      0.00000000	      0.06302261	     -0.67307437	      1.35314860	      0.11703930	     -0.89518892	      1.43772038	      0.10353985	     -1.63651303	      1.43772038	      0.07202855	     -1.63651303	      1.18400502	      0.05852280	     -1.37253326	      1.09943324	      0.03601112	     -1.04259220	      1.01486145	      0.45016423	     -7.61395192	      7.52580655	      0.00000000	      0.00000000	     27.47922921	      1.10489383	     -6.00210738	     -1.95116458	     -9.22889633	     11.55198214	     93.96846241	     85.01771824	     -4.58019431	      2.33660830	      7.50611292	    -21.25012477	     32.81381299	     88.76441050	     63.54667247	      7.39735232	     16.19985475
      2.71428571	     -3.33550953	      0.01430996	     87.74493732	      0.24399913	      0.79394263	      0.72742145	     14.54682379	     -1.73376868	      7.93931736	     22.34968293	      0.39007555	     25.16960629	     -7.44953359	      0.00000000	      8.81004566	      1.09333091	      4.77357565	     11.94858540	      0.20854216	     22.75267383	    -12.43028220	      0.00000000	      0.08177032	     -0.63475715	      1.34892519	      0.15185565	     -0.84422701	      1.43323301	      0.13434045	     -1.54334854	      1.43323301	      0.09345529	     -1.54334854	      1.18030954	      0.07593191	     -1.29439679	      1.09600172	      0.04672356	     -0.98323883	      1.01169389	      0.58407718	     -7.18049987	      7.50231722	      0.00000000	      0.00000000	     27.64340311	      0.64987047	     -7.04996612	     -0.84062204	     -8.50105596	     14.94109017	     83.83989091	     86.57212779	     -4.52384505	      4.35375720	      7.72555295	    -20.53320934	     35.73887077	     80.81140715	     64.91536958	     11.02553553	     14.81678022
      2.73809524	     -2.92442488	      0.07327947	     88.15085716	      0.24246453	      0.79304425	      0.72697121	     14.28783693	     -1.53421879	      7.23055769	     22.12591114	      0.38617000	     25.36146712	     -7.18215337	      0.00000000	      8.91788901	      0.87709842	      6.00604859	     12.31181107	      0.21488164	     23.08469110	    -13.48895153	      0.00000000	      0.10247274	     -0.55793034	      1.33047766	      0.19030212	     -0.74204736	      1.41363251	      0.16835246	     -1.35655184	      1.41363251	      0.11711609	     -1.35655184	      1.16416795	      0.09515618	     -1.13773156	      1.08101310	      0.05855292	     -0.86423410	      0.99785824	      0.73195250	     -6.31141965	      7.39971758	      0.00000000	      0.00000000	     27.72134246	     -0.08695939	     -7.28215197	      0.59164577	     -7.81008190	     18.28656910	     74.74585492	     87.16383629	     -3.50861182	      6.34184673	      8.42782699	    -19.49718664	     38.16072651	     74.50775810	     67.64411955	     14.23847859	     13.41959289
      2.76190476	     -2.36507185	      0.26477661	     88.46746923	      0.24062221	      0.79231598	      0.72690357	     13.82307872	     -1.18190421	      6.55821005	     21.75042354	      0.37961650	     25.49537610	     -6.88952495	      0.00000000	      8.87543162	      0.47923907	      6.69866326	     12.62599648	      0.22036521	     23.60892948	    -13.84371581	      0.00000000	      0.09578367	     -0.44207450	      1.28799711	      0.17787986	     -0.58795909	      1.36849693	      0.15736300	     -1.07485995	      1.36849693	      0.10947116	     -1.07485995	      1.12699747	      0.08894472	     -0.90147833	      1.04649765	      0.05473079	     -0.68477340	      0.96599784	      0.68417319	     -5.00083519	      7.16345355	      0.00000000	      0.00000000	     27.71388589	     -1.12427857	     -6.70244415	      2.16534378	     -7.24352360	     21.75712204	     67.06740919	     87.23890964	     -1.02118473	      6.88389940	      9.46153453	    -18.52646528	     40.74576478	     70.23062780	     68.46508355	     14.64328995	     11.82933375
      2.78571429	     -1.76501815	      0.43222139	     88.79019412	      0.23837797	      0.79176226	      0.72718487	     13.29176467	     -0.87323463	      5.51996798	     21.18874603	      0.36981338	     25.85942554	     -5.93937613	      0.00000000	      8.86966758	      0.07657406	      7.46766866	     12.91992640	      0.22549525	     23.99335578	    -14.33788950	      0.00000000	      0.09011124	     -0.30834554	      1.21914585	      0.16734558	     -0.41009957	      1.29534247	      0.14804375	     -0.74971135	      1.29534247	      0.10298813	     -0.74971135	      1.06675262	      0.08367729	     -0.62877822	      0.99055600	      0.05148956	     -0.47762724	      0.91435939	      0.64365555	     -3.48806642	      6.78052348	      0.00000000	      0.00000000	     27.63188879	     -2.07347434	     -5.47470158	      3.77270025	     -6.92907163	     25.71194715	     60.71618283	     87.49915245	      1.86711653	      5.66274239	     10.71148236	    -17.54685563	     43.50469354	     66.80191755	     70.36042262	     13.56376159	      9.07195721
      2.80952381	     -1.15761436	      0.60046641	     89.06443052	      0.23611133	      0.79143816	      0.72784367	     12.73098768	     -0.60366479	      4.20619399	     20.54693633	      0.35861169	     26.38393562	     -4.38711581	      0.00000000	      8.87058284	     -0.32918155	      8.16868790	     13.17164233	      0.22988853	     24.25987728	    -14.90235617	      0.00000000	      0.07873939	     -0.17074927	      1.12026903	      0.14622692	     -0.22709652	      1.19028585	      0.12936094	     -0.41515977	      1.19028585	      0.08999125	     -0.41515977	      0.98023540	      0.07311740	     -0.34819190	      0.91021859	      0.04499169	     -0.26449061	      0.84020177	      0.56242757	     -1.93154986	      6.23060028	      0.00000000	      0.00000000	     27.53035398	     -2.77164927	     -3.91905447	      5.75317409	     -6.90758290	     30.90451407	     55.00334548	     87.98246674	      3.11138287	      3.01162418	     12.28744480	    -16.52022807	     47.15818028	     63.03321235	     73.26803852	     10.70075989	      5.17015590
